<svg width="14" height="14" viewBox="0 0 14 14" fill="none" xmlns="http://www.w3.org/2000/svg">
<path d="M6.9987 1.78255C9.93936 1.78255 12.332 4.17522 12.332 7.11588C12.332 10.0566 9.93936 12.4492 6.9987 12.4492C4.05803 12.4492 1.66536 10.0566 1.66536 7.11588C1.66536 4.17522 4.05803 1.78255 6.9987 1.78255ZM6.9987 0.449219C3.3167 0.449219 0.332031 3.43389 0.332031 7.11588C0.332031 10.7979 3.3167 13.7826 6.9987 13.7826C10.6807 13.7826 13.6654 10.7979 13.6654 7.11588C13.6654 3.43389 10.6807 0.449219 6.9987 0.449219ZM9.53203 9.38255L7.66536 6.89389V3.78255H6.33203V7.33788L8.46536 10.1819L9.53203 9.38255Z" fill="#005C31"/>
</svg>
