<svg width="12" height="16" viewBox="0 0 12 16" fill="none" xmlns="http://www.w3.org/2000/svg">
<path d="M6 2.11525C4.76232 2.11525 3.57534 2.60692 2.70017 3.48208C1.825 4.35725 1.33333 5.54424 1.33333 6.78192C1.33333 8.68992 2.52133 10.5306 3.82533 11.9566C4.49209 12.683 5.21962 13.3512 6 13.9539C6.11644 13.8646 6.25311 13.7557 6.41 13.6272C7.03654 13.1128 7.62621 12.5549 8.17467 11.9579C9.47867 10.5306 10.6667 8.69058 10.6667 6.78192C10.6667 5.54424 10.175 4.35725 9.29983 3.48208C8.42466 2.60692 7.23768 2.11525 6 2.11525ZM6 15.5913L5.622 15.3312L5.62 15.3299L5.616 15.3266L5.60267 15.3172L5.55267 15.2819L5.37267 15.1506C4.46057 14.4651 3.61325 13.6974 2.84133 12.8573C1.47867 11.3653 0 9.20592 0 6.78125C2.37122e-08 5.18995 0.632141 3.66383 1.75736 2.53861C2.88258 1.41339 4.4087 0.78125 6 0.78125C7.5913 0.78125 9.11742 1.41339 10.2426 2.53861C11.3679 3.66383 12 5.18995 12 6.78125C12 9.20592 10.5213 11.3659 9.15867 12.8559C8.38696 13.6961 7.53986 14.4637 6.628 15.1493C6.55204 15.206 6.47536 15.2618 6.398 15.3166L6.384 15.3259L6.38 15.3292L6.37867 15.3299L6 15.5913ZM6 5.44858C5.64638 5.44858 5.30724 5.58906 5.05719 5.83911C4.80714 6.08916 4.66667 6.42829 4.66667 6.78192C4.66667 7.13554 4.80714 7.47468 5.05719 7.72473C5.30724 7.97477 5.64638 8.11525 6 8.11525C6.35362 8.11525 6.69276 7.97477 6.94281 7.72473C7.19286 7.47468 7.33333 7.13554 7.33333 6.78192C7.33333 6.42829 7.19286 6.08916 6.94281 5.83911C6.69276 5.58906 6.35362 5.44858 6 5.44858ZM3.33333 6.78192C3.33333 6.07467 3.61428 5.3964 4.11438 4.8963C4.61448 4.3962 5.29276 4.11525 6 4.11525C6.70724 4.11525 7.38552 4.3962 7.88562 4.8963C8.38572 5.3964 8.66667 6.07467 8.66667 6.78192C8.66667 7.48916 8.38572 8.16744 7.88562 8.66753C7.38552 9.16763 6.70724 9.44858 6 9.44858C5.29276 9.44858 4.61448 9.16763 4.11438 8.66753C3.61428 8.16744 3.33333 7.48916 3.33333 6.78192Z" fill="#005C31"/>
</svg>
