<svg width="14" height="8" viewBox="0 0 14 8" fill="none" xmlns="http://www.w3.org/2000/svg">
<path fill-rule="evenodd" clip-rule="evenodd" d="M0.601562 3.99986C0.601562 3.84073 0.664777 3.68812 0.777298 3.57559C0.88982 3.46307 1.04243 3.39986 1.20156 3.39986H11.2736L9.59356 1.83986C9.53578 1.78628 9.48912 1.72184 9.45624 1.65023C9.42336 1.57862 9.40491 1.50123 9.40193 1.42249C9.39896 1.34374 9.41153 1.26518 9.43892 1.1913C9.46631 1.11741 9.50798 1.04964 9.56156 0.991858C9.66977 0.875163 9.8199 0.806233 9.97893 0.800231C10.0577 0.79726 10.1362 0.809827 10.2101 0.837216C10.284 0.864605 10.3518 0.906279 10.4096 0.959858L13.2096 3.55986C13.2701 3.61602 13.3185 3.6841 13.3515 3.75981C13.3846 3.83552 13.4016 3.91724 13.4016 3.99986C13.4016 4.08247 13.3846 4.16419 13.3515 4.23991C13.3185 4.31562 13.2701 4.38369 13.2096 4.43986L10.4096 7.03986C10.2929 7.14807 10.138 7.20549 9.97893 7.19948C9.8199 7.19348 9.66977 7.12455 9.56156 7.00786C9.45335 6.89116 9.39593 6.73626 9.40193 6.57723C9.40794 6.4182 9.47687 6.26807 9.59356 6.15986L11.2736 4.59986H1.20156C1.04243 4.59986 0.88982 4.53664 0.777298 4.42412C0.664777 4.3116 0.601562 4.15899 0.601562 3.99986Z" fill="#001F10"/>
</svg>
